# xmcd
#
# Track frame offsets:
#	300
#	15020
#	33654
#	59732
#	71668
#	85393
#	111250
#	130409
#	156845
#	172126
#	195112
#	216992
#	235624
#	261603
#	277427
#
# Disc length: 4044 seconds
#
# Revision: 1
# Processed by: cddbd v1.5.1PL0 Copyright (c) Steve Scherf et al.
# Submitted via: audiograbber 1.83.01
#
DISCID=e70fc80f
DTITLE=Various Artist - Simply the Blues - Disc 2
DYEAR=2002
DGENRE=Blues
TTITLE0=J. J. Cale - No time
TTITLE1=Robben Ford - Talk to your daughter
TTITLE2=Willie Dixon - Blues you can't lose
TTITLE3=Gary Moore - Moving on
TTITLE4=Robert Ward - Your love is real
TTITLE5=John Hammond - Preachin' the blues
TTITLE6=John Mayall - Wake up call
TTITLE7=Junior Kimbrough - All night long
TTITLE8=John Lee Hooker - One bourbon, one scotch,  one beer
TTITLE9=Chris Duarte Group - The thrill is gone
TTITLE10=Peter Green Splinter Group - Help me (live)
TTITLE11=Buddy Guy - Stay all night
TTITLE12=R. L. Burnside - Goin' down south
TTITLE13=Paolo Bonfanti and Jono Manson - Sometimes
TTITLE14=Treves Blues Band - Big slow
EXTD=
EXTT0=
EXTT1=
EXTT2=
EXTT3=
EXTT4=
EXTT5=
EXTT6=
EXTT7=
EXTT8=
EXTT9=
EXTT10=
EXTT11=
EXTT12=
EXTT13=
EXTT14=
PLAYORDER=
